<svg xmlns="http://www.w3.org/2000/svg" viewBox="0 0 1440 320">
    <path fill="#000b76" fill-opacity="0.7" d="M0,224L9.2,218.7C18.5,213,37,203,55,176C73.8,149,92,107,111,101.3C129.2,96,148,128,166,144C184.6,160,203,160,222,181.3C240,203,258,245,277,224C295.4,203,314,117,332,85.3C350.8,53,369,75,388,96C406.2,117,425,139,443,144C461.5,149,480,139,498,112C516.9,85,535,43,554,32C572.3,21,591,43,609,74.7C627.7,107,646,149,665,144C683.1,139,702,85,720,64C738.5,43,757,53,775,96C793.8,139,812,213,831,218.7C849.2,224,868,160,886,154.7C904.6,149,923,203,942,202.7C960,203,978,149,997,128C1015.4,107,1034,117,1052,149.3C1070.8,181,1089,235,1108,213.3C1126.2,192,1145,96,1163,101.3C1181.5,107,1200,213,1218,245.3C1236.9,277,1255,235,1274,234.7C1292.3,235,1311,277,1329,282.7C1347.7,288,1366,256,1385,208C1403.1,160,1422,96,1431,64L1440,32L1440,320L1430.8,320C1421.5,320,1403,320,1385,320C1366.2,320,1348,320,1329,320C1310.8,320,1292,320,1274,320C1255.4,320,1237,320,1218,320C1200,320,1182,320,1163,320C1144.6,320,1126,320,1108,320C1089.2,320,1071,320,1052,320C1033.8,320,1015,320,997,320C978.5,320,960,320,942,320C923.1,320,905,320,886,320C867.7,320,849,320,831,320C812.3,320,794,320,775,320C756.9,320,738,320,720,320C701.5,320,683,320,665,320C646.2,320,628,320,609,320C590.8,320,572,320,554,320C535.4,320,517,320,498,320C480,320,462,320,443,320C424.6,320,406,320,388,320C369.2,320,351,320,332,320C313.8,320,295,320,277,320C258.5,320,240,320,222,320C203.1,320,185,320,166,320C147.7,320,129,320,111,320C92.3,320,74,320,55,320C36.9,320,18,320,9,320L0,320Z"></path>
    <path fill="#273036" fill-opacity="0.8" d="M0,224L10,224C20,224,40,224,60,218.7C80,213,100,203,120,213.3C140,224,160,256,180,240C200,224,220,160,240,165.3C260,171,280,245,300,282.7C320,320,340,320,360,288C380,256,400,192,420,170.7C440,149,460,171,480,170.7C500,171,520,149,540,165.3C560,181,580,235,600,224C620,213,640,139,660,96C680,53,700,43,720,64C740,85,760,139,780,176C800,213,820,235,840,208C860,181,880,107,900,117.3C920,128,940,224,960,224C980,224,1000,128,1020,117.3C1040,107,1060,181,1080,202.7C1100,224,1120,192,1140,154.7C1160,117,1180,75,1200,90.7C1220,107,1240,181,1260,208C1280,235,1300,213,1320,197.3C1340,181,1360,171,1380,181.3C1400,192,1420,224,1430,240L1440,256L1440,320L1430,320C1420,320,1400,320,1380,320C1360,320,1340,320,1320,320C1300,320,1280,320,1260,320C1240,320,1220,320,1200,320C1180,320,1160,320,1140,320C1120,320,1100,320,1080,320C1060,320,1040,320,1020,320C1000,320,980,320,960,320C940,320,920,320,900,320C880,320,860,320,840,320C820,320,800,320,780,320C760,320,740,320,720,320C700,320,680,320,660,320C640,320,620,320,600,320C580,320,560,320,540,320C520,320,500,320,480,320C460,320,440,320,420,320C400,320,380,320,360,320C340,320,320,320,300,320C280,320,260,320,240,320C220,320,200,320,180,320C160,320,140,320,120,320C100,320,80,320,60,320C40,320,20,320,10,320L0,320Z"></path>
</svg>